<?xml version="1.0" encoding="UTF-8"?>
<svg  viewBox="0 0 16 16" xmlns="http://www.w3.org/2000/svg" xmlns:svg="http://www.w3.org/2000/svg">
  <style>
      #PSI {
      display: none;
      }
      #RK {
      display: block;
      }
      @media all and (max-width: 16px) {
      #RK {
        display: none;
      }
      #PSI {
      display: block;
      }
    }
  </style>
 <g id="PSI">
  <title>Warstwa 1</title>
   <g id="svg_3" transform="matrix(0.12818304,0,0,0.12818311,-7.2382613,-118.08011)">
    <path id="path3077" d="m57.69651,932.816101c1.72052,2.497925 2.706131,5.344666 2.92635,8.562256l1.66188,19.978699c0.223469,2.773926 0.877708,5.397705 1.987026,7.839722c1.109161,2.442017 2.558784,4.562256 4.335335,6.394592c1.77639,1.832397 3.863899,3.282043 6.250107,4.335388c2.38604,1.053345 4.924583,1.5896 7.58683,1.5896l12.138939,0l0,34.863281c-0.000008,3.881592 -0.224678,7.784424 -0.614166,11.669312c-0.389519,3.88501 -0.958534,7.748413 -1.734131,11.633179l-10.007401,0l0,4.335327l42.955933,0l0,-4.335327l-9.971283,0c-0.77565,-3.884766 -1.380791,-7.748169 -1.770256,-11.633179c-0.389542,-3.884888 -0.578087,-7.78772 -0.578041,-11.669312l0,-34.97168l9.17646,0c3.329346,0.000061 6.520454,0.534668 9.573845,1.589661c3.053314,1.055054 5.778702,2.521057 8.164886,4.407593c2.386063,1.886597 4.319473,4.164307 5.816574,6.828125c1.496979,2.663879 2.341461,5.56488 2.565079,8.670654l1.66188,21.640564c0.220078,2.885742 0.843277,5.612793 1.842514,8.164795c0.999069,2.552124 2.361771,4.829956 4.082428,6.828247c1.72052,1.998291 3.722778,3.567505 5.997223,4.732788c2.274277,1.165161 4.740555,1.734131 7.406189,1.734131l12.138947,0l0,-4.335327l-4.335327,0c-1.886658,0 -3.369019,-0.552734 -4.479858,-1.661865c-1.111023,-1.109375 -1.955505,-2.577148 -2.565063,-4.407715c-0.609756,-1.830566 -1.042709,-3.832886 -1.264481,-5.997192c-0.221939,-2.164185 -0.394119,-4.353394 -0.505783,-6.575317l-1.336731,-17.12439c-0.332016,-4.105103 -1.470047,-7.763489 -3.468246,-10.98291c-1.998413,-3.219299 -4.604111,-6.015259 -7.767502,-8.34552c-3.163513,-2.3302 -6.735077,-4.193054 -10.72995,-5.635986c-3.994995,-1.442749 -8.204453,-2.511963 -12.64473,-3.179199c2.885651,-1.44281 5.611038,-3.202332 8.164886,-5.310791c2.553711,-2.108337 4.760895,-4.628784 6.647522,-7.514587c1.662918,-2.550293 3.027328,-5.224915 4.082428,-8.056519c1.054962,-2.831421 2.071625,-5.712585 3.070862,-8.598389c0.663773,-1.994873 1.493591,-3.962708 2.492813,-5.961121c0.999084,-1.998169 2.102676,-3.792175 3.323761,-5.346924c1.220932,-1.554504 2.670547,-2.813904 4.335342,-3.757263c1.664597,-0.943176 3.493011,-1.408875 5.491409,-1.408997l5.021774,0l0,-4.335327l-27.168121,0l0,4.335327l7.514603,0c-1.219421,2.330383 -2.324692,4.763916 -3.323761,7.261719c-0.999252,2.497986 -1.966782,4.997009 -2.854111,7.550659c-0.887451,2.662292 -1.663071,5.372986 -2.38443,8.092651c-0.721497,2.719849 -1.808716,5.289429 -3.251511,7.731323c-2.885757,4.880737 -6.785309,8.540955 -11.669266,10.982849c-4.884079,2.442139 -10.164375,3.68512 -15.823967,3.685059l-2.998604,0l0,-22.001831c-0.000038,-3.884766 0.188499,-7.748169 0.578041,-11.633118c0.389473,-3.884766 0.994614,-7.784302 1.770264,-11.669312l9.971275,0l0,-4.335327l-42.955925,0l0,4.335327l10.007401,0c0.775604,3.88501 1.344604,7.784546 1.734131,11.669312c0.389488,3.884949 0.614159,7.748352 0.614166,11.633118l0,22.074097l-4.335327,0c-1.88665,0 -3.42321,-0.518188 -4.588234,-1.517395c-1.165207,-0.999146 -2.080269,-2.309326 -2.745697,-3.97406c-0.665634,-1.664673 -1.164078,-3.547241 -1.553505,-5.599792c-0.389587,-2.05249 -0.650375,-4.103882 -0.758667,-6.213989l-1.517372,-17.991638c-0.55555,-5.991516 -2.882408,-10.75531 -7.044914,-14.30658c-4.162674,-3.551208 -9.356033,-4.728088 -15.571083,-6.394531l1.228352,11.633057l-0.000011,0z" fill="#000000"/>
   </g>
 </g>
 <g id="RK">
  <title>Warstwa 2</title>
  <g id="svg_1" transform="matrix(0.100431, 0, 0, 0.100431, -53.6908, -58.6143)">
   <path id="svg_5" d="m534.643372,584.141296l0,3.75l8.65625,0c0.670898,3.360352 1.163086,6.702148 1.5,10.0625c0.336914,3.360352 0.5,6.733398 0.5,10.093628l0,53c0,3.357422 -0.163086,6.702148 -0.5,10.0625c-0.336914,3.360352 -0.829102,6.733398 -1.5,10.09375l-8.65625,0l0,3.71875l37.15625,0l0,-3.71875l-8.625,0c-0.670898,-3.360352 -1.194336,-6.733398 -1.53125,-10.09375c-0.336914,-3.360352 -0.5,-6.705078 -0.5,-10.0625l0,-26.5l3.75,0c2.976563,0.000122 5.901367,0.357544 8.78125,1.125c2.879883,0.7677 5.462891,1.918091 7.71875,3.40625c2.255859,1.488403 4.105469,3.308228 5.59375,5.46875c1.488281,2.160767 2.34082,4.623169 2.53125,7.40625l1.4375,17.28125c0.193359,2.399414 0.759277,4.668945 1.71875,6.78125c0.959473,2.112305 2.213379,3.946289 3.75,5.53125c1.536621,1.584961 3.342285,2.838867 5.40625,3.75c2.063965,0.911133 4.259766,1.375 6.5625,1.375l10.5,0l0,30.156128c0,3.357544 -0.194336,6.733521 -0.53125,10.09375c-0.336914,3.360596 -0.829102,6.702393 -1.5,10.0625l-8.65625,0l0,3.75l37.15625,0l0,-3.75l-8.625,0c-0.670898,-3.360107 -1.194336,-6.701904 -1.53125,-10.0625c-0.336914,-3.360229 -0.5,-6.736206 -0.5,-10.09375l0,-30.249878l7.9375,0c2.879883,0.000122 5.640137,0.462524 8.28125,1.375c2.641113,0.91272 4.998535,2.180786 7.0625,3.8125c2.063965,1.631958 3.736328,3.602173 5.03125,5.90625c1.294922,2.304321 2.025391,4.813477 2.21875,7.5l1.4375,18.718628c0.19043,2.496338 0.729492,4.85498 1.59375,7.0625c0.864258,2.207764 2.042969,4.177734 3.53125,5.90625c1.488281,1.728516 3.220215,3.085938 5.1875,4.093994c1.967285,1.007813 4.100586,1.5 6.40625,1.5l10.5,0l0,-3.75l-3.75,0c-1.631836,0 -2.914063,-0.478271 -3.875,-1.4375c-0.960938,-0.959473 -1.691406,-2.229248 -2.21875,-3.812744c-0.527344,-1.583252 -0.901855,-3.31543 -1.09375,-5.1875c-0.191895,-1.87207 -0.34082,-3.765625 -0.4375,-5.6875l-1.15625,-14.812378c-0.287109,-3.550781 -1.271484,-6.71521 -3,-9.5c-1.728516,-2.784546 -3.982422,-5.203003 -6.71875,-7.21875c-2.736328,-2.015503 -5.825684,-3.626831 -9.28125,-4.875c-3.455566,-1.247925 -7.09668,-2.172729 -10.9375,-2.75c2.496094,-1.247925 4.853516,-2.769897 7.0625,-4.59375c2.208984,-1.823608 4.118164,-4.003784 5.75,-6.5c1.438477,-2.205933 2.618652,-4.519409 3.53125,-6.96875c0.912598,-2.449097 1.791992,-4.941284 2.65625,-7.4375c0.574219,-1.725464 1.291992,-3.427612 2.15625,-5.15625c0.864258,-1.728394 1.818848,-3.280151 2.875,-4.625c1.056152,-1.344604 2.310059,-2.43396 3.75,-3.25c1.439941,-0.815796 3.021484,-1.218628 4.75,-1.21875l4.34375,0l0,-3.75l-23.5,0l0,3.75l6.5,0c-1.054688,2.015747 -2.010742,4.120728 -2.875,6.28125c-0.864258,2.160767 -1.701172,4.322388 -2.46875,6.53125c-0.767578,2.302856 -1.438477,4.647583 -2.0625,7c-0.624023,2.352661 -1.564453,4.575317 -2.8125,6.6875c-2.496094,4.221802 -5.869141,7.387817 -10.09375,9.5c-4.224609,2.112427 -8.791992,3.187622 -13.6875,3.1875l-2.59375,0l0,-19.03125c0,-3.360229 0.163086,-6.702026 0.5,-10.0625c0.336914,-3.360229 0.860352,-6.733276 1.53125,-10.09375l8.625,0l0,-3.75l-37.15625,0l0,3.75l8.65625,0c0.670898,3.360474 1.163086,6.733521 1.5,10.09375c0.336914,3.360474 0.53125,6.702271 0.53125,10.0625l0,19.09375l-3.75,0c-1.631836,0 -2.960938,-0.448242 -3.96875,-1.3125c-1.007813,-0.864258 -1.799316,-1.997559 -2.375,-3.4375c-0.575684,-1.439941 -1.006836,-3.068359 -1.34375,-4.84375c-0.336914,-1.775391 -0.5625,-3.549805 -0.65625,-5.375l-1.3125,-15.5625c-0.480469,-5.182495 -2.493164,-9.303101 -6.09375,-12.375c-3.600586,-3.071655 -8.092773,-5.339722 -13.46875,-6.78125c2.879883,-0.767456 5.566406,-1.886597 8.0625,-3.375c2.496094,-1.488159 4.64502,-3.279663 6.46875,-5.34375c1.82373,-2.063843 3.256348,-4.363159 4.3125,-6.90625c1.056152,-2.542847 1.59375,-5.304565 1.59375,-8.28125c0,-3.744019 -0.805664,-7.146851 -2.4375,-10.218628c-1.631836,-3.071777 -3.826172,-5.697266 -6.5625,-7.90625c-2.736328,-2.208984 -5.900879,-3.939453 -9.5,-5.1875c-3.599121,-1.248047 -7.375,-1.875 -11.3125,-1.875l-41.90625,0zm28.53125,3.75l4.03125,0c7.297852,0 13.235352,1.833984 17.84375,5.53125c4.608398,3.697266 6.90625,8.995117 6.90625,15.906128c0,6.911255 -2.297852,12.210571 -6.90625,15.90625c-4.608398,3.695923 -10.545898,5.562622 -17.84375,5.5625l-6.0625,0l0,-22.75c0,-3.360229 0.163086,-6.733276 0.5,-10.093628c0.336914,-3.360352 0.860352,-6.702148 1.53125,-10.0625z" fill="#000000"/>
  </g>
 </g>
</svg>